<?xml version="1.0" encoding="UTF-8"?>
<svg id="Calque_1" data-name="Calque 1" xmlns="http://www.w3.org/2000/svg" viewBox="0 0 1200 1200">
  <defs>
    <style>
      .cls-1 {
        fill: #f56c53;
      }

      .cls-1, .cls-2 {
        stroke-width: 0px;
      }

      .cls-2 {
        fill: #fff;
      }
    </style>
  </defs>
  <path class="cls-1" d="m1064.27,232.35c-10.54-46.1-44.5-68.5-81.46-72.84-57.85-6.79-115.72-3.01-173.65-.6-59.4,2.47-118.92,1.92-178.36,2.41-57.57.47-115.25,2.2-172.82,1.31-56.8-.88-112.05-7.9-167.96,8.91-1.27.38-2.48.94-3.72,1.4-36.11,1.56-72.63,27.71-80.01,73.07-13.87,85.36-15.64,170.99-18.5,257.56-2.69,81.24-7.24,162.46-6.17,243.82.97,74.02,2.91,157.62,23.97,227.95,12.27,40.98,38.75,75.6,75.78,84.37,32.66,7.73,67.11,4.24,100.14,6.22,75.18,4.51,149.52,8.51,224.83,7.74,72.46-.74,144.66-1.01,217.11,1.26,32.4,1.01,64.94,1.35,97.19-3.03,38.6-5.24,80.84-11.06,109.23-46.87,41.83-52.78,39.58-146.4,39.9-214.9.45-95.43-3.7-191-4.07-286.46-.18-46.33-.65-93.01,1.95-139.24,2.95-52.5,8.54-99.91-3.38-152.07Z"/>
  <g>
    <path class="cls-2" d="m427.8,396.29c9.38,19.17,19.07,38.98,26.38,59.62,19.29,54.53,51.16,100.25,79.77,137.79,10.5,13.79,23.59,23.87,38.91,29.98,3.15,1.26,5.87,2.6,8.14,4.07l-.7-4.65c-.88-5.85-1.57-11.62-2.27-17.28-1.42-11.77-2.74-22.88-5.58-33.28l-1.1-4.07c-9.42-34.81-19.18-70.8-32.05-104.67-6.45-16.99-16.98-33.43-27.14-49.34l-7.76-12.2c-13.92-22.38-28.2-44.55-42.46-66.72-9.42-14.66-18.85-29.32-28.2-44.04-5.44-8.62-10.48-17.51-15.52-26.39l-4.56-8.05c-3.85-6.7-9.13-11.5-16.12-15.6,1.42,12.26.56,24.68-.67,37.94-2.61,27.89,2.81,56.26,16.55,86.73,4.56,10.15,9.47,20.17,14.39,30.19Z"/>
    <path class="cls-2" d="m362.39,520.49l14.08,21.39c19.95,30.19,39.78,60.43,59.64,90.67l40.1,61.04c12.39,18.85,24.78,37.68,37.4,56.36-2-4.64-3.87-9.33-5.51-14.19-6.93-20.49-13.47-41.12-20.02-61.74-7.94-25.03-15.88-50.06-24.51-74.84-14.84-42.53-32.34-91.85-52.4-139.15-9.13-21.5-21.25-42.55-32.97-62.91-3.98-6.88-7.94-13.77-11.81-20.69l-7.31-13.13c-11.87-21.42-24.15-43.58-37.78-64.04-11.3-16.97-21.96-31.13-34.33-42.42-4.73,40.9-7.36,81.88-9.15,123,5.33,18.37,14.37,36.64,27.29,55.21,19.61,28.13,38.46,56.79,57.28,85.44Z"/>
    <path class="cls-2" d="m669.22,684.27c-17.88,11.59-41.09,27.18-61.91,44.95-6.68,5.69-11.92,14.08-17.47,22.96-2,3.2-4,6.39-6.07,9.48-2.23,3.32-4.14,6.86-6.05,10.39-1.93,3.55-3.87,7.11-6.05,10.52l-4.16,6.53c7.65-3.46,15.34-6.83,23.03-10.19,11.02-4.81,22.02-9.62,32.88-14.75l4.11-1.93c27.39-12.92,53.28-25.13,73.36-46.35,14.62-15.4,23.03-32.81,26.15-53.21l-5.49-23.52c-15,19.9-34.61,33.61-52.33,45.11Z"/>
    <path class="cls-2" d="m990.35,716.47c-11.06,7.43-24.33,13.09-41.22,17.66-31.71,8.61-60.58,15.79-88.24,21.94-19.97,4.45-40.05,8.59-60.11,12.73-31.39,6.47-63.84,13.16-95.31,21-34.79,8.66-79.68,22.11-118.27,49.34-5.31,3.73-9.9,9.68-14.75,15.97-2.29,2.96-4.57,5.91-6.95,8.69-1.08,1.28-2.05,2.67-3.06,4.19,7.29-3.18,14.78-6.33,22.6-8.78,11.96-3.76,24.76-7.53,38.19-8.74,9.29-.83,18.55-1.18,27.8-1.18,25.32,0,50.4,2.63,74.86,5.2l8.5.89c34.88,3.65,69.76.82,99.24-2.43,8.55-.93,17.09-1.7,25.66-2.46,15.61-1.39,31.73-2.83,47.2-5.34,27.77-4.51,49.05-12.46,66.97-25,8.82-6.17,14.57-15.31,18.17-28.74,6.25-23.39,6.68-43.96,1.3-62.9-1.06-3.79-2.09-7.81-2.59-12.04Z"/>
    <path class="cls-2" d="m980.1,871.54c-17.45,10.2-37.24,16.46-64.18,20.32l-74.82,10.56c-28.7,4.1-56.54.91-82.62-2.72-39.31-5.48-85.59-9.43-130.86,2.65-28.72,7.65-52.29,19.28-71.87,35.52,1.66-.18,3.4-.24,5.13-.24,14.8.17,26.85,2.08,36.79,5.86,21.45,8.12,44.03,12.63,71.04,14.17,23.1,1.3,46.12,5.07,68.41,8.7l17.25,2.78c51.88,8.1,97.96,10.97,140.91,8.61,35.91-1.91,59.42-13.29,73.96-35.79,9.4-14.53,13.9-28.34,13.74-42.22-.11-9.81.11-20.73,3.13-31.96-1.98,1.29-3.98,2.56-6,3.76Z"/>
    <path class="cls-2" d="m433.76,894.34c-8.12-6.94-16.24-13.88-24.45-20.67-20.15-16.64-39.24-27.06-60.13-32.83-26.58-7.36-48.01-24.03-65.98-39.07-3.8-3.16-7.51-6.41-11.2-9.69,1.48,12.6.28,25.02-1.17,36.78,1.63,36.28,4.74,72.77,10.6,107.57,5.21,5.67,12.55,10.44,23,14.99,27.17,11.86,56.47,13.99,92.2,6.63l15.76-3.31c16.08-3.4,32.16-6.78,48.37-9.36,7.35-1.16,14.69-1.38,21.86-1.38,2.25,0,4.5.02,6.72.04l7.62.04c1.06-.19.97.01,1.44.03-8.5-5.22-17.18-10.67-25.3-17.05-13.4-10.55-26.38-21.63-39.35-32.73Z"/>
    <path class="cls-2" d="m492.68,872.78c-3.85-13.08-6.9-26.39-9.94-39.7-1.82-7.93-3.64-15.87-5.85-24.59-7.76-30.75-15.79-62.54-31.42-89.79-9.38-16.34-20.87-32.17-32-47.48-4.5-6.21-9-12.39-13.38-18.64-7.92-11.28-15.9-22.51-23.88-33.74-11.09-15.56-22.15-31.12-33.06-46.81-9.29-13.37-20.64-24.69-34.77-34.61-11.02-7.77-19.79-14.51-27.57-21.22-2.58-2.22-4.88-4.58-7.15-6.96-.68,22.14-1.43,44.28-2.16,66.43.38,3.63.8,7.26,1.14,10.9.67,7.4,1.19,14.83,1.69,22.26.85,12.69,1.75,25.83,3.6,38.37,4.52,30.34,22.26,55.14,40.07,77.95,28.74,36.86,64.47,73.07,112.42,113.97,16.6,14.15,32.23,29.63,47.36,44.59,7.69,7.6,15.38,15.21,23.21,22.67,1.93,1.84,3.91,3.63,5.91,5.41-.54-1.41-1.1-2.8-1.66-4.21-4.45-11.21-9.06-22.8-12.57-34.79Z"/>
    <path class="cls-2" d="m892.93,421.08c-.18-3.22-.36-6.42-.56-10.22-10.5,2.17-19.66.36-27.23-5.46-.49,1.14-.94,2.35-1.3,3.61-7.44,25.4-15.16,51.68-30.7,75.04-4.72,7.11-9.83,13.98-14.93,20.84-7.15,9.59-13.9,18.65-19.59,28.34-18.85,32.1-31.57,61.63-38.91,90.28-3.31,13.01-.63,24.54,8.25,35.24,6.27,7.61,11.78,7.36,15.9,6.33,10.68-2.74,20.76-5.94,29.98-9.5,12.77-4.96,24.33-.91,30.79,10.9,2.5,4.55,4.57,9.34,6.61,14.13l2.02,4.69c2.52,5.75,5.76,9.58,8.48,10.02,2.11.41,6.21-1.28,11.31-6.89,8.66-9.59,12.68-21.56,13-38.82.29-15.91.22-31.82.16-47.73l-.07-21.49c.49-12.54.43-25.11.36-37.69-.16-28.12-.29-57.2,5.62-86.2,2.23-10.87,1.53-22.79.81-35.41Z"/>
    <path class="cls-2" d="m534.33,284.58c-3.42.29-6.84.57-10.21,1.1l-5.51.84c-7.2,1.08-13.99,2.1-20.33,3.98-6.57,1.93-6.63,4.22-6.68,5.75-.09,2.59,2.9,7.17,7.2,8.23,9.63,2.36,19.52,3.85,29.44,4.41,26.78,1.46,52.85-2.16,80.46-6.06,9.24-1.29,18.49-2.6,27.75-3.7,36.12-4.28,73.45-14.02,121.01-31.56,9.13-3.36,18.53-4.52,27.62-5.64l6.52-.81c8.66-1.01,10.21-1.65,11.78-4.95,1.39-2.9,3.49-4.95,5.64-6.45-15.81-8.26-31.46-12.71-48.49-13.86-32.63-2.25-62.72.65-92.07,8.69-17.81,4.89-34.88,1.93-51.45-.93l-7.13-1.2c-30.47-4.96-60.85-8.93-86.58-12.17-11.29-1.38-21.45.42-30.47,5.35l-.56,2.27c3.85,6.13,9.98,10.07,19.95,12.77l39.71,10.55-3.49,22.04-14.12,1.36Z"/>
    <path class="cls-2" d="m579.92,429c-.72,2.14-1.46,4.27-2.11,6.47-1.48,5.15-1.15,8.2-.41,9.23.76,1.08,3.67,2.43,9.24,2.65,9.74.33,18.58-2.68,26.6-9.11,5.89-4.73,11.56-9.8,17.2-14.86,4.7-4.19,9.38-8.38,14.21-12.41,19.56-16.35,42.17-26.21,64.02-35.75,5.31-2.32,10.59-4.62,15.85-7.03,23.05-10.57,46.01-21.39,68.9-32.35,3.42-1.63,3.96-1.89,1.96-7.6-1.91-5.42-4.05-11.57-4.3-18.34-.14-4.41-.43-6.38,0-6.58-.7-.23-2.2-.56-5.35-.94-3.87.92-7.78,1.74-11.69,2.56-9.49,2-18.49,3.89-26.63,7.18-34.36,13.93-70.3,19.55-97.76,22.89-12.23,1.47-24.49,2.79-36.75,4.1-17.34,1.87-34.68,3.72-51.97,6.07-8.19,1.11-16.24,3.8-22.69,7.56-3.8,2.2-6.05,4.94-6.07,7.3,0,2.68,2.68,5.91,6.99,8.46,1.93,1.15,3.94,2.2,5.94,3.26,3.82,2.01,7.62,4.06,11.2,6.52,7.6,5.26,13,9.76,17.52,14.57,8.52,9.02,11.15,21.02,7.2,32.89l-1.12,3.25Z"/>
    <path class="cls-2" d="m997.75,559.11c-.34-6.61-2.2-13.56-4.18-20.91-1.96-7.24-3.96-14.72-4.75-22.68-.97-10.26-.02-20.3.88-30.01.36-3.89.74-7.78.97-11.65.27-4.61.7-9.24,1.15-13.88.94-9.95,1.82-19.35.94-28.32-.79-8.25-5.08-17.38-9.22-26.21l-1.08-2.28c-.67-1.43-1.28-1.93-1.51-2.01-.67-.17-2.2.08-4.43,1.38-2.16,1.25-4.16,2.8-6.12,4.31-8.39,6.57-17.86,8.61-28.88,5.64-.11,4.88-.16,9.76-.18,14.64-.07,9.68-.16,19.35-.9,28.99-.79,10.4-2.02,20.79-3.26,31.17-1.89,15.76-3.67,30.64-3.98,45.73-.85,38.04-.22,76.88.38,114.43l.36,22.26c.05,3.37,1.21,7.69,3.37,14.06,0,0,.81-.02,2.59-.92,9.87-4.98,13.85-11,13.79-20.79-.02-6.31.7-12.63,1.46-18.95l3.33-17.4,20.37-1.39,6.99,22.4c.49,1.69.9,3.44,1.28,5.19.47,2.07.99,4.41,1.6,5.39.99,1.64,1.87,2.84,2.54,3.67.67-.37,1.33-.82,1.6-1.15,2.88-4.35,4.72-9.66,4.83-13.83.72-28.41,1.46-57.8.04-86.87Z"/>
    <path class="cls-2" d="m935.66,375.03c28.97-.1,33.53-6.29,38.34-22.5,7.47-25.09,13.58-50.15,18.19-74.49,3.73-19.76-6.7-34.96-27.23-39.66-10.19-2.33-19.97-3.5-29.39-3.5-27.44,0-51.79,9.92-73.85,29.95-8.01,7.29-15.52,15.17-22.87,23.14-8.41,9.19-9.18,18.53-2.32,28.56,24.29,35.55,58.56,55.77,99.13,58.49Z"/>
    <path class="cls-2" d="m558.97,782.28l.26-.42c7.91-83.75,68.11-175.05,130.53-233.01l-.4,5.71c-.49,5.69-1.03,11.67-.94,17.65.09,6.36,2.18,11.31,5.76,13.55,3.62,2.26,8.82,2.02,14.71-.66,14.35-6.6,25.7-17.97,36.84-36.84,12.66-21.56,26.63-43.71,41.45-65.82,3.53-5.26,7.78-10.05,12.1-14.81,4.12-4.57,8.03-8.89,10.84-13.47,6.27-10.13,10.84-21.74,15.36-33.71,3.1-8.26,5.51-16.8,7.89-25.32l2.86-9.96c1.19-4.04,1.21-5.55,1.35-5.55-.29-.36-1.44-1.43-5.42-3.69-4.05-2.28-6.95-5.44-9.27-7.98-1.08-1.18-2.09-2.43-3.35-3.34-1.08-.8-1.96-1.33-2.59-1.66-10.12,2.98-20.44,6.14-29.1,10.87-39.98,21.85-74.71,41.55-106.12,60.24-19.18,11.4-37.47,23.04-50.17,39.94-4.12,5.48-7.56,12.22-9.71,18.99-1.48,4.68-.99,9.29,1.37,12.99,2.45,3.82,6.63,6.3,11.76,6.94,8.01,1.01,16.1,1.39,24.38,1.8l30.3,1.84c-30.05,30.43-85.68,87.99-101.48,116.91,0,0-10.92,20.41-14.86,31.86h-.02c-4.45,13.79-10.12,27.23-14.06,41.16-5.93,21-11.32,42.15-16.78,63.28l.02.02s-8.96,40.19-12.34,68.27c-.19,1.95-.37,3.91-.57,5.86-.12,1.19-.24,2.38-.35,3.57-.08.82-.15,1.63-.24,2.45-1.36,12.69-2.79,25.37-4.1,38.06-1.05,10.07-1.76,20.18-2.7,30.26-.22,2.35-.55,4.68-.84,7.02-.05.36-.08.72-.13,1.08l-.57,3.74-3.44,22.63-.34,2.25-4.55,29.95s.78,6.62,7.17,6.24c7.74-1.4,12.77-4.86,14.75-13.71l3.6-39.34.43-.29c.38-6.13.91-12.22,2.01-18.01l-.26.18c.49-2.86,2.86-27.44,4.38-43.4.71-7.54,1.24-13.16,1.28-13.51,0-.06.02-.13.03-.19,1.2-8.34,2.54-16.66,3.95-24.96l-.17.14,9.53-55.79Z"/>
  </g>
</svg>